<svg xmlns="http://www.w3.org/2000/svg" width="1200" height="750" viewBox="0 0 1200 750">
  <defs>
    <linearGradient id="g" x1="0" y1="0" x2="1" y2="1">
      <stop offset="0" stop-color="#fff7f3"/>
      <stop offset="1" stop-color="#f3f6ff"/>
    </linearGradient>
    <filter id="shadow" x="-20%" y="-20%" width="140%" height="140%">
      <feDropShadow dx="0" dy="10" stdDeviation="14" flood-color="#000" flood-opacity="0.18"/>
    </filter>
  </defs>
  <rect x="0" y="0" width="1200" height="750" fill="url(#g)"/>
  <rect x="70" y="60" rx="24" ry="24" width="1060" height="630" fill="#ffffff" filter="url(#shadow)"/>
  <rect x="70" y="60" rx="24" ry="24" width="1060" height="72" fill="#12131a"/>
  <circle cx="110" cy="96" r="8" fill="#ff5f56"/><circle cx="135" cy="96" r="8" fill="#ffbd2e"/><circle cx="160" cy="96" r="8" fill="#27c93f"/>
  <text x="600.0" y="104" font-family="ui-sans-serif, system-ui, -apple-system, Segoe UI, Roboto, Helvetica, Arial" font-size="20" fill="#eef0f6" text-anchor="middle">Modelo Python</text>
  <text x="600.0" y="140" font-family="ui-sans-serif, system-ui, -apple-system, Segoe UI, Roboto, Helvetica, Arial" font-size="16" fill="#374151" text-anchor="middle">Definici贸n del modelo gestor.tarea y sus campos</text>

  <rect x="110" y="190" rx="16" ry="16" width="980" height="78" fill="#f9fafb" stroke="#e5e7eb"/>
  <text x="140" y="220" font-family="ui-monospace, SFMono-Regular, Menlo, Monaco, Consolas, Liberation Mono, Courier New" font-size="18" fill="#111827">class GestorTarea(models.Model):</text>
  <rect x="110" y="282" rx="16" ry="16" width="980" height="78" fill="#f9fafb" stroke="#e5e7eb"/>
  <text x="140" y="312" font-family="ui-monospace, SFMono-Regular, Menlo, Monaco, Consolas, Liberation Mono, Courier New" font-size="18" fill="#111827">_name = 'gestor.tarea'  路  name = fields.Char(required=True)</text>
  <rect x="110" y="374" rx="16" ry="16" width="980" height="78" fill="#f9fafb" stroke="#e5e7eb"/>
  <text x="140" y="404" font-family="ui-monospace, SFMono-Regular, Menlo, Monaco, Consolas, Liberation Mono, Courier New" font-size="18" fill="#111827">user_id = fields.Many2one('res.users')  路  state = fields.Selection(...)</text>
  <rect x="110" y="590" rx="18" ry="18" width="980" height="86" fill="#fff3ed" stroke="#ffd6c7"/>
  <text x="140" y="624" font-family="ui-sans-serif, system-ui" font-size="18" fill="#9a3412"><tspan font-weight="800">Tip:</tspan> user_id = fields.Many2one('res.users')  路  state = fields.Selection(...)</text>
  <rect x="110" y="690" rx="999" ry="999" width="280" height="40" fill="#e95420"/>
  <text x="250" y="717" font-family="ui-sans-serif, system-ui" font-size="16" fill="#fff" text-anchor="middle" font-weight="800">Figura</text>
</svg>